<?xml version="1.0" encoding="utf-8"?>
<!-- Generator: Adobe Illustrator 25.2.1, SVG Export Plug-In . SVG Version: 6.00 Build 0)  -->
<svg version="1.1"
	 id="Layer_1" shape-rendering="geometricPrecision" text-rendering="geometricPrecision" image-rendering="optimizeQuality"
	 xmlns="http://www.w3.org/2000/svg" xmlns:xlink="http://www.w3.org/1999/xlink" x="0px" y="0px" viewBox="0 0 25 25" width="25" height="25"
	 style="enable-background:new 0 0 25 25;" xml:space="preserve">
<style type="text/css">
	.st0{fill:#F6AE22;}
</style>
<path class="st0" d="M16.5,5.5l1,2.5l2.7,0.2c0.1,0,0.2,0.1,0.3,0.1l0,0c0.1,0.1,0.1,0.2,0.1,0.3l0,0c0,0,0,0.1,0,0.1l0,0
	c0,0,0,0.1-0.1,0.1l-2,1.8l0.6,2.6c0,0.1,0,0.2-0.1,0.3c-0.1,0.1-0.2,0.2-0.4,0.2c-0.1,0-0.1,0-0.1-0.1l-2.3-1.4l-2.3,1.4
	c-0.1,0.1-0.2,0.1-0.3,0c-0.1,0-0.2-0.1-0.2-0.2l0,0c0-0.1-0.1-0.2,0-0.3l0.6-2.6l-2-1.8c-0.1-0.1-0.1-0.2-0.1-0.3
	c0-0.1,0-0.2,0.1-0.3c0,0,0.1-0.1,0.1-0.1c0,0,0.1,0,0.2,0l2.6-0.2l1.1-2.5c0-0.1,0.1-0.2,0.2-0.2c0.1,0,0.2,0,0.3,0l0,0
	c0,0,0.1,0,0.1,0.1l0,0C16.5,5.4,16.5,5.4,16.5,5.5L16.5,5.5L16.5,5.5z M9,6.3C8.8,6.2,8.7,6,8.8,5.8s0.3-0.3,0.5-0.2l1.6,0.7
	C11,6.3,11.1,6.5,11,6.7c-0.1,0.2-0.3,0.3-0.5,0.2L9,6.3z M10.5,3.8c-0.1-0.1-0.1-0.4,0-0.5c0.1-0.1,0.4-0.1,0.5,0l1.2,1.2
	c0.1,0.1,0.1,0.4,0,0.5c-0.1,0.1-0.4,0.1-0.5,0C11.7,5,10.5,3.8,10.5,3.8z M12.9,2.2c-0.1-0.2,0-0.4,0.2-0.5c0.2-0.1,0.4,0,0.5,0.2
	l0.6,1.6c0.1,0.2,0,0.4-0.2,0.5c0,0,0,0,0,0c-0.2,0.1-0.4,0-0.5-0.2L12.9,2.2z M23.1,5.6c0.2-0.1,0.4,0,0.5,0.2
	c0.1,0.2,0,0.4-0.2,0.5l-1.6,0.7c-0.2,0.1-0.4,0-0.5-0.2c-0.1-0.2,0-0.4,0.2-0.5c0,0,0,0,0,0L23.1,5.6z M21.2,3.3
	c0.1-0.1,0.4-0.1,0.5,0c0.1,0.1,0.1,0.4,0,0.5L20.6,5c-0.1,0.1-0.4,0.1-0.5,0c-0.1-0.1-0.1-0.4,0-0.5L21.2,3.3L21.2,3.3z M18.7,1.9
	c0.1-0.2,0.3-0.3,0.5-0.2c0.2,0.1,0.3,0.3,0.2,0.5l-0.6,1.6c-0.1,0.2-0.3,0.3-0.5,0.2c0,0,0,0,0,0C18,3.9,17.9,3.6,18,3.4L18.7,1.9z
	 M15.8,1.5c0-0.2,0.2-0.4,0.4-0.4c0.2,0,0.4,0.2,0.4,0.4v1.7c0,0.2-0.2,0.4-0.4,0.4c-0.2,0-0.4-0.2-0.4-0.4V1.5L15.8,1.5z"/>
<polygon class="st0" points="0.6,13.3 5.5,13.3 5.3,21.9 0.6,21.9 "/>
<path class="st0" d="M6.3,21.2l0.2-7.1l3.2,0.1c1.4,0.3,2.7,1,4,1.9l2.5,0.1c1.1,0.1,1.7,1.3,0.6,2c-0.9,0.6-2,0.6-3.2,0.4
	c-0.8-0.1-0.9,1,0,1.1c0.3,0,0.6,0,0.9,0c1.5,0,2.7-0.2,3.5-1.4l0.4-0.9l3.8-1.8c1.9-0.6,3.1,1.4,1.7,2.7c-2.7,1.9-5.5,3.4-8.4,4.7
	c-2.1,1.2-4.1,1.1-6.1-0.1L6.3,21.2L6.3,21.2z"/>
</svg>
