<?xml version="1.0" encoding="utf-8"?>
<!-- Generator: Adobe Illustrator 25.2.1, SVG Export Plug-In . SVG Version: 6.00 Build 0)  -->
<svg version="1.1" id="Layer_1" xmlns="http://www.w3.org/2000/svg" xmlns:xlink="http://www.w3.org/1999/xlink" x="0px" y="0px"
	 viewBox="0 0 500 500" style="enable-background:new 0 0 500 500;" xml:space="preserve">
<style type="text/css">
	.st0{fill:#F5AD1F;}
</style>
<g>
	<path class="st0" d="M250,494.7c-65.4,0-126.8-25.5-173-71.7C30.8,376.8,5.3,315.4,5.3,250c0-65.4,25.5-126.8,71.7-173
		C123.2,30.8,184.6,5.3,250,5.3c65.4,0,126.8,25.5,173,71.7c46.2,46.2,71.7,107.7,71.7,173c0,65.4-25.5,126.8-71.7,173
		S315.4,494.7,250,494.7z M250,12.3C118.9,12.3,12.3,118.9,12.3,250S118.9,487.7,250,487.7S487.7,381.1,487.7,250
		S381.1,12.3,250,12.3z"/>
</g>
<g>
	<path class="st0" d="M250,248.2c-43.2,0-78.3-35.1-78.3-78.3s35.1-78.3,78.3-78.3s78.3,35.1,78.3,78.3S293.2,248.2,250,248.2z
		 M250,102.2c-37.4,0-67.7,30.4-67.7,67.7s30.4,67.7,67.7,67.7s67.7-30.4,67.7-67.7S287.4,102.2,250,102.2z"/>
	<path class="st0" d="M250,408.3c-84.1,0-124.1-23.6-125.7-24.6s-2.6-2.7-2.5-4.6c0.2-15.6,0.3-33.2,0.1-36c-0.1-0.3-0.1-0.7-0.1-1
		c0-28.5,9.4-48.8,28.7-62c20.3-13.9,52.9-20.7,99.6-20.7s79.3,6.8,99.6,20.7c19.3,13.2,28.7,33.5,28.7,62c0,0.3,0,0.7-0.1,1
		c-0.2,2.8-0.1,20.5,0.1,36c0,1.9-0.9,3.6-2.5,4.6C374.1,384.8,334.1,408.3,250,408.3z M132.3,376.1c9.9,5,48.5,21.7,117.7,21.7
		s107.8-16.7,117.7-21.7c-0.3-21.9-0.3-30.3,0.1-34l0,0c0-25.1-7.7-42.1-24.1-53.3C325.2,276.1,294.6,270,250,270
		s-75.2,6.2-93.7,18.8c-16.4,11.2-24.1,28.2-24.1,53.3l0,0C132.6,345.8,132.6,354.2,132.3,376.1z M377,345.6L377,345.6L377,345.6z
		 M123,345.6L123,345.6L123,345.6z M377,345.6L377,345.6L377,345.6z M123,345.6L123,345.6L123,345.6z M377.5,344.8
		c-0.2,0.3-0.3,0.5-0.6,0.8C377.2,345.4,377.4,345.1,377.5,344.8z M123,345.6L123,345.6L123,345.6z M123,345.6L123,345.6L123,345.6z
		 M122.5,344.9c0.1,0.2,0.3,0.5,0.5,0.7C122.8,345.4,122.6,345.1,122.5,344.9z"/>
</g>
</svg>
